<svg id="Camada_1" data-name="Camada 1" xmlns="http://www.w3.org/2000/svg" viewBox="0 0 256 256"><defs><style>.cls-1,.cls-4{fill:#d31c37;}.cls-2,.cls-3{fill:none;}.cls-2{stroke:#e2687a;stroke-miterlimit:10;}.cls-4{fill-rule:evenodd;}.cls-5{fill:#fff;}</style></defs><title>facebook_icone</title><ellipse class="cls-1" cx="128" cy="127.57" rx="128" ry="127.57"/><path class="cls-1" d="M106.46,100.82" transform="translate(-0.5 -0.5)"/><path class="cls-2" d="M106.46,100.82" transform="translate(-0.5 -0.5)"/><line class="cls-1" x1="73.46" y1="165.3" x2="73.46" y2="128.43"/><rect class="cls-3" x="48.91" y="128.43" width="49.1" height="36.88"/><path class="cls-4" d="M94.28,158.3c.17,0,.21,0,.22.1C94.22,158.39,94,158.33,94.28,158.3Z" transform="translate(-0.5 -0.5)"/><path class="cls-4" d="M61,159.77c.15,0,.43.12-.14.11C60.77,159.83,60.93,159.81,61,159.77Z" transform="translate(-0.5 -0.5)"/><path class="cls-4" d="M60.22,159.93c.27,0,0,.07.1.11C60,160,60.05,160,60.22,159.93Z" transform="translate(-0.5 -0.5)"/><path class="cls-4" d="M65.29,160.38c.18,0,.32.08.1.11S65.36,160.41,65.29,160.38Z" transform="translate(-0.5 -0.5)"/><path class="cls-4" d="M60,160.58c.31,0,.41.11.32.2C59.92,160.75,60,160.65,60,160.58Z" transform="translate(-0.5 -0.5)"/><path class="cls-4" d="M86.14,161.14c0,.1.49.3-.07.37C86.42,161.39,85.85,161.25,86.14,161.14Z" transform="translate(-0.5 -0.5)"/><path class="cls-4" d="M74.69,161.41c.7.12-.09.34.38.5-.59,0-.08-.23-.55-.28a.71.71,0,0,1,.26-.09S74.35,161.45,74.69,161.41Z" transform="translate(-0.5 -0.5)"/><path class="cls-4" d="M73,162.91c.31,0,.51,0,.47.05a3.55,3.55,0,0,1-.49,0S72.94,162.93,73,162.91Z" transform="translate(-0.5 -0.5)"/><path class="cls-4" d="M77,163.53c.54.1.58.33.15.45.08,0,.28,0,.23.05s-.16.24-.13.08C76.89,163.91,77.27,163.75,77,163.53Z" transform="translate(-0.5 -0.5)"/><path class="cls-4" d="M71,163.61c.18,0,.24.06.22.11C70.93,163.71,70.87,163.63,71,163.61Z" transform="translate(-0.5 -0.5)"/><path class="cls-4" d="M86.7,163.76c.27,0,0,.1.09.15C86.63,163.87,86.45,163.8,86.7,163.76Z" transform="translate(-0.5 -0.5)"/><path class="cls-4" d="M73,163.73c.31,0,.22.13.45.18C73,164,73.08,163.79,73,163.73Z" transform="translate(-0.5 -0.5)"/><path class="cls-4" d="M71.33,163.8c.37,0,.25.13.32.2C71.36,164,71.45,163.87,71.33,163.8Z" transform="translate(-0.5 -0.5)"/><path class="cls-4" d="M89.55,163.92c.41,0,.36.06.46.11A.78.78,0,0,1,89.55,163.92Z" transform="translate(-0.5 -0.5)"/><path class="cls-4" d="M86.66,164c.33,0,.23.23.17.32C86.55,164.19,86.58,164.11,86.66,164Z" transform="translate(-0.5 -0.5)"/><path class="cls-4" d="M71.64,164c.55.08.12.2.07.27C71.39,164.23,72,164.12,71.64,164Z" transform="translate(-0.5 -0.5)"/><path class="cls-4" d="M77.24,164.24a.88.88,0,0,1,.34.13C77.05,164.38,77.27,164.3,77.24,164.24Z" transform="translate(-0.5 -0.5)"/><path class="cls-4" d="M76,164.38c.3,0,.16.07.1.13C75.84,164.5,76.08,164.42,76,164.38Z" transform="translate(-0.5 -0.5)"/><path class="cls-4" d="M74.54,164.52c.32,0,.38.14-.26.11,0,0,.18,0,.37,0S74.44,164.57,74.54,164.52Z" transform="translate(-0.5 -0.5)"/><path class="cls-4" d="M83.72,164.86c-.49-.08.25-.22,0,0Z" transform="translate(-0.5 -0.5)"/><path class="cls-4" d="M88.13,165c.24.07.17.14.07.21S88,165.07,88.13,165Z" transform="translate(-0.5 -0.5)"/><path class="cls-4" d="M88.84,165.09c.37,0,.34.1,0,.08Z" transform="translate(-0.5 -0.5)"/><path class="cls-4" d="M95.17,165.24c.24,0,.3.07.22.11C95.09,165.34,95,165.26,95.17,165.24Z" transform="translate(-0.5 -0.5)"/><path class="cls-4" d="M94.6,165.68c.55.14,0,.18,0,0Z" transform="translate(-0.5 -0.5)"/><path class="cls-4" d="M94.84,162.07a2.39,2.39,0,0,0,.47.08c-.49,0-.06.15-.29.21C94.5,162.28,95.17,162.19,94.84,162.07Z" transform="translate(-0.5 -0.5)"/><path class="cls-4" d="M84.52,163.87s-.23,0-.14.08c-.19,0-.2,0-.36,0s.09.12.09.19l-.36,0c.65.09-.38.2-.08.39-.68-.18-.17-.58-.33-.74.47,0,0,.16.57.18C84.28,163.93,84,163.84,84.52,163.87Z" transform="translate(-0.5 -0.5)"/><path class="cls-4" d="M73.2,164a.16.16,0,0,0,.12,0c.28,0,.06.08,0,.08C73,164.1,73.16,163.88,73.2,164Z" transform="translate(-0.5 -0.5)"/><path class="cls-4" d="M74.52,165.23H74c0,.1.14.26-.31.33-.33-.12.5-.38-.26-.47.13,0,.13-.05.25-.07-.75-.29.06-.6-.42-.89,1.28.13-.47.43.84.58-.06,0-.12,0-.11,0S73.76,165.06,74.52,165.23Z" transform="translate(-0.5 -0.5)"/><path class="cls-4" d="M89.79,165.12c.21,0,.27.07.46.1C90.23,165.23,89.46,165.15,89.79,165.12Z" transform="translate(-0.5 -0.5)"/><path class="cls-4" d="M98.51,133c0-.08-.43-.16-.43-.23s.46-.34.22-.51-.85-.31-1-.47-.28-.16-.43-.25c-.44-.23-.21-.43-1.45-.53-.82-.17-1.3-.38-2.06-.52-.12,0-.06-.07-.1-.08-1.91-.37-5-.6-6.4-1-.7,0-1.73-.06-2.61-.13-.39,0-.65-.11-1.06-.14-1.49-.09-3.39,0-4.52-.17a6.91,6.91,0,0,0-.73,0c-3,0-5.49.06-7.8,0-1.37.11-3,.09-4.24.17-.8.06-1.56.17-2.33.24s-1.55.16-2.45.23-1.07.1-1.82.12c-.56.13-1.33.22-1.87.35-.3,0-.48,0-.85,0a18.69,18.69,0,0,0-4,.9s-.16.11-.15.15c0,.27-.29.68-1.49.83-.09,0,.2,0,.1.09-.57,0-1.65.18-1.62.3s.78.12.92.21-.84.28-.68.4.77.12.92.18c.42.16.13.48-.12.61s-.76.15-.64.22a5.32,5.32,0,0,0,1.65.12c2,.21.46.74,1.35,1.05-.72.23.48.46.35.68,0,0-.28.09-.27.14s.4.18.55.28.19.31.51.45c-1.2.21.18.37.12.54s-.4.14-.4.21.35.12.32.19-.4.14-.4.21.24.09.22.13-.32.09-.27.14.51.12.56.18c.19.22-.3.46.59.66-.75.38.45.7-.35,1.14.24.11.42.19.18.31.09,0,.38,0,.35.06-.36.23.65.47.22.71l.35,0c-.57.33-.65.74,0,1-.6.2.09.43.11.67s-.32.23-.19.34-.06.49.1.69.39.12.44.18-.24.22-.06.34c.68.44.21.94.21,1.33,0,.12.39.22.53.35s-.41.46-.26.68c0,0,.28.11.33.16s-.1.26-.08.4c.06.34.72.69.16,1,.79.42.53,1,.66,1.5.65.11.09.21.17.32.26.34,1,.78.5,1.14,1.15,1.51.65,3.09,2,4.58-.5.12-.18.3.16.41a.51.51,0,0,0-.39.14c.8.19.15.42.35.66.77.06.19.2.78.29-.43,0-.37-.05-.6,0,1.41.16.75.67,1.13.91a.53.53,0,0,1,.25,0c-.36,0,.35.08.32.14.16.43,1.56.73,2.07,1.09-.2,0-.8.16-.28.2.08-.06,0-.14.63-.14-.2.11.07.25.53.32.06.14-.26.21.18.33,0,0,.61,0,.59,0-.31.19.21.28-.09.45.55.05.72.25.42.31.24,0,.46-.06.6,0s.41.3,0,.44a2.74,2.74,0,0,1,.7.11s-.54,0-.37,0a8.47,8.47,0,0,0,1,0,4,4,0,0,0,.82.1c-.33.1.34.18.54.27s0,.21.18.31.57.12.56.21-.44.14-.4.22.44,0,.47,0a1.33,1.33,0,0,0,1,.8c-.94-.33.06-.57-.79-.87.54,0-.33-.13.4-.17-.31,0-.53,0-.48,0s.18,0,.13-.06a4.9,4.9,0,0,0,1.09-.05c0-.25-.33-.44-.35-.66-.15,0-.36,0-.47,0s0-.15-.19-.25a10.36,10.36,0,0,1,1.33-.06c0,.3.89.69,1,1,0,.1-.45.21.31.27-.23-.16.61-.28.68-.42s-.66-.36-.49-.53.26-.06.26-.11-.36-.09-.33-.13.28,0,.25-.08-.45-.13-.44-.21.48-.27.33-.41a3.13,3.13,0,0,1,.83,0,.64.64,0,0,0,0,.38,1.22,1.22,0,0,1,.36,0c0,.06-.18.07.1.11,0-.13.91-.12,1.34-.07-.17.33.26.74-.09,1a3.83,3.83,0,0,1,.7.1c.3.3,0,.65.29,1,.71-.38.29-.77,0-1.21.11,0,.44,0,.37,0-.34-.19-.25-.41-.37-.55l1.6-.19c-.44-.46,1.68-.79,1.68-1.23.37,0,.48,0,.73,0s.69.06.94.1c0,.07.22.14,0,.21,1.07.36.31.89.93,1.35a9,9,0,0,0,1.57,0c.34-.22-.5-.42.25-.66,1.41-.08,2.4,0,2.48.19a1.12,1.12,0,0,1-.2,1c.84.88.49,1.75,1.15,2.65.27-.5-.48-1,0-1.41-.26,0-.38,0-.35,0a1.13,1.13,0,0,0-.33-1.32c.86-.16-.16-.47.72-.64a6,6,0,0,1,2.33.35c-.07-.17.38-.34.46-.48s-.34-.33,0-.39c.07,0,.35,0,.36,0s-.08-.09-.1-.1-.26-.05-.21-.13.07-.09.39-.16c.21-.34-.21-.67.08-1,0,0,0-.1,0-.11s.33,0,.37-.05-.26,0-.23,0,.24-.28.21-.41c-.08-.33.25-.73.2-1,.08-.06.49,0,.49-.06a5.4,5.4,0,0,0,.65-1.46c.05,0,.57,0,.49-.06.09-.07-.49-.05-.45-.11a3.05,3.05,0,0,1,.62-.1c.44-.57-.05-1.16-.25-1.75a10.79,10.79,0,0,1-.28-1.62c-.08-.41-.59-.81-.24-1.17a2.31,2.31,0,0,1-.45-1.39c0-.33.24-.7,0-1,0,0-.33-.1-.33-.16s.41-.17.41-.25c0-.23-.48-.47-.46-.7s.11-.5.15-.75S92,147.11,92,147s.3-.19.29-.29c0-.27-.54-.54-.43-.8s.67-.7.09-1a1.07,1.07,0,0,0,.12-1.22c1-.3,0-.61.19-1,0,0,.21-.06.26-.1.71-.51-.57-1.07.06-1.49-.63-.15.06-.29.21-.43s-.26-.3-.27-.45.23-.1.26-.15-.3-.29-.38-.46.92-.52.28-.8c.44-.22,1-.55.4-.81.9-.42-.15-.86.26-1.29.14-.15.77-.29.21-.44.64-.15.27-.34.34-.53s.45-.38.6-.57-.31-.62,1-.83c2.73-.1-1.29-.28-.74-.5a17.5,17.5,0,0,1,2.31-.16c.41-.1.16-.2-.06-.3C97.26,133.24,98.5,133.15,98.51,133Zm-29.4,28.1a.67.67,0,0,0-.24,0C68.29,161.08,69.13,161,69.11,161.1Zm.23,0c0,.13.59.32.16.42,0,0,.68,0,.83,0-.29.05-.52.12-.52.22-1,0-.4-.19-1.28-.2.08-.07.13-.11-.33-.14.33-.16-.28-.19.06-.31C68.83,161.17,68.7,161.12,69.34,161.13Z" transform="translate(-0.5 -0.5)"/><line class="cls-1" x1="181.46" y1="128.43" x2="175.79" y2="165.3"/><rect class="cls-3" x="160.47" y="122.81" width="37.31" height="49.1" transform="translate(5.73 301.49) rotate(-81.25)"/><path class="cls-4" d="M160.73,133.34c-.17-.05-.21-.09-.21-.13C160.8,133.26,161,133.35,160.73,133.34Z" transform="translate(-0.5 -0.5)"/><path class="cls-4" d="M193.87,136.94c-.14-.06-.4-.19.16-.09C194.08,136.91,193.92,136.91,193.87,136.94Z" transform="translate(-0.5 -0.5)"/><path class="cls-4" d="M194.64,136.89c-.26,0,0-.08-.08-.12C194.9,136.82,194.81,136.9,194.64,136.89Z" transform="translate(-0.5 -0.5)"/><path class="cls-4" d="M189.7,135.67c-.18,0-.31-.13-.08-.13S189.64,135.63,189.7,135.67Z" transform="translate(-0.5 -0.5)"/><path class="cls-4" d="M195,136.27c-.3-.08-.39-.16-.29-.24C195.06,136.12,194.93,136.19,195,136.27Z" transform="translate(-0.5 -0.5)"/><path class="cls-4" d="M169.2,131.73c0-.1-.44-.37.13-.36C169,131.44,169.51,131.66,169.2,131.73Z" transform="translate(-0.5 -0.5)"/><path class="cls-4" d="M180.57,133.21c-.68-.23.13-.33-.3-.56.58.07,0,.25.49.36a1.1,1.1,0,0,1-.27.06C180.53,133.12,180.91,133.22,180.57,133.21Z" transform="translate(-0.5 -0.5)"/><path class="cls-4" d="M182.52,132c-.31,0-.51-.08-.46-.12l.48.06Z" transform="translate(-0.5 -0.5)"/><path class="cls-4" d="M178.59,130.73c-.52-.18-.52-.41-.08-.47-.07,0-.27-.06-.22-.09s.19-.22.14-.06C178.77,130.37,178.38,130.47,178.59,130.73Z" transform="translate(-0.5 -0.5)"/><path class="cls-4" d="M184.55,131.57c-.18,0-.23-.1-.2-.15C184.63,131.48,184.68,131.57,184.55,131.57Z" transform="translate(-0.5 -0.5)"/><path class="cls-4" d="M169.06,129c-.27-.06,0-.11-.07-.16C169.14,128.93,169.31,129,169.06,129Z" transform="translate(-0.5 -0.5)"/><path class="cls-4" d="M182.57,131.14c-.29-.08-.19-.16-.41-.24C182.63,130.92,182.52,131.07,182.57,131.14Z" transform="translate(-0.5 -0.5)"/><path class="cls-4" d="M184.26,131.33c-.36-.09-.23-.17-.29-.25C184.25,131.17,184.15,131.25,184.26,131.33Z" transform="translate(-0.5 -0.5)"/><path class="cls-4" d="M166.26,128.44c-.4-.07-.34-.12-.43-.18C166.2,128.32,166.13,128.38,166.26,128.44Z" transform="translate(-0.5 -0.5)"/><path class="cls-4" d="M169.13,128.81c-.32-.1-.19-.27-.12-.35C169.27,128.62,169.23,128.7,169.13,128.81Z" transform="translate(-0.5 -0.5)"/><path class="cls-4" d="M184,131.05c-.53-.16-.08-.22,0-.28C184.26,130.89,183.67,130.92,184,131.05Z" transform="translate(-0.5 -0.5)"/><path class="cls-4" d="M178.48,130a.76.76,0,0,1-.31-.18C178.69,129.88,178.46,129.93,178.48,130Z" transform="translate(-0.5 -0.5)"/><path class="cls-4" d="M179.72,130c-.29-.08-.15-.09-.08-.14C179.91,130,179.66,130,179.72,130Z" transform="translate(-0.5 -0.5)"/><path class="cls-4" d="M181.19,130.12c-.31-.07-.35-.2.28-.07,0,0-.18,0-.37,0S181.3,130.09,181.19,130.12Z" transform="translate(-0.5 -0.5)"/><path class="cls-4" d="M172.17,128.39c.47.15-.28.17,0,0Z" transform="translate(-0.5 -0.5)"/><path class="cls-4" d="M167.84,127.54c-.23-.1-.15-.16,0-.22S168,127.52,167.84,127.54Z" transform="translate(-0.5 -0.5)"/><path class="cls-4" d="M167.15,127.38c-.37,0-.33-.16,0-.08Z" transform="translate(-0.5 -0.5)"/><path class="cls-4" d="M160.92,126.27c-.25-.06-.29-.12-.2-.15C161,126.18,161.05,126.27,160.92,126.27Z" transform="translate(-0.5 -0.5)"/><path class="cls-4" d="M161.55,125.9c-.53-.21,0-.17,0,0Z" transform="translate(-0.5 -0.5)"/><path class="cls-4" d="M160.75,129.48a3.36,3.36,0,0,0-.45-.15c.49,0,.08-.14.31-.17C161.12,129.32,160.44,129.31,160.75,129.48Z" transform="translate(-0.5 -0.5)"/><path class="cls-4" d="M171.23,129.26s.23,0,.15-.06a2.7,2.7,0,0,1,.35.07c.1-.07-.07-.14-.06-.21l.35.08c-.62-.19.41-.14.14-.38.65.29.08.61.21.79-.46-.09,0-.17-.53-.26C171.47,129.23,171.76,129.37,171.23,129.26Z" transform="translate(-0.5 -0.5)"/><path class="cls-4" d="M182.44,130.81a.18.18,0,0,0-.12,0c-.27,0,0-.08,0-.08C182.68,130.78,182.46,131,182.44,130.81Z" transform="translate(-0.5 -0.5)"/><path class="cls-4" d="M181.32,129.42l.47.07c0-.11-.09-.29.36-.29.31.17-.55.31.19.51-.13,0-.14,0-.27,0,.71.4-.14.58.29.95-1.25-.33.53-.36-.75-.71.07,0,.13,0,.11,0S182.05,129.7,181.32,129.42Z" transform="translate(-0.5 -0.5)"/><path class="cls-4" d="M166.21,127.2c-.2-.06-.25-.11-.44-.17C165.8,127,166.54,127.22,166.21,127.2Z" transform="translate(-0.5 -0.5)"/><path class="cls-4" d="M152.65,158c0,.07.4.21.39.29s-.5.27-.3.48.8.43.91.62.25.2.39.31c.39.3.14.46,1.35.75.78.29,1.22.58,2,.84.12,0,0,.08.09.09,1.83.66,4.88,1.37,6.16,2,.7.15,1.7.33,2.56.54.39.09.63.2,1,.29,1.46.31,3.35.53,4.44.86a6.63,6.63,0,0,0,.73.08c2.94.46,5.44.78,7.71,1.17,1.37.1,2.93.36,4.22.47.8.07,1.57.07,2.34.12s1.56.07,2.45.14,1.07.06,1.82.16c.57,0,1.35,0,1.9-.07.31,0,.49,0,.85.09a18.32,18.32,0,0,0,4.12-.29c.05,0,.16-.08.16-.12,0-.28.39-.65,1.6-.61.1,0-.19-.07-.08-.11.57.06,1.66.08,1.64-.05s-.75-.24-.87-.35.87-.15.73-.3-.74-.23-.88-.32c-.38-.22-.05-.49.21-.59s.78,0,.67-.12a5.49,5.49,0,0,0-1.62-.37c-2-.52-.34-.81-1.17-1.26.76-.12-.4-.52-.23-.72s.28-.06.28-.11-.37-.24-.49-.36-.15-.34-.44-.52c1.22,0-.12-.4,0-.57s.42-.07.43-.15-.33-.17-.29-.24.42-.08.43-.15-.23-.12-.19-.16.33,0,.28-.1-.49-.2-.53-.26c-.15-.25.37-.41-.48-.75.8-.26-.33-.77.52-1.09-.22-.15-.38-.25-.13-.33-.08,0-.36-.08-.33-.12.39-.18-.57-.57-.11-.74l-.34-.09c.62-.24.76-.64.11-1,.63-.11,0-.44,0-.69s.35-.18.24-.31.13-.48,0-.7c0-.07-.37-.18-.42-.25s.28-.19.12-.33c-.6-.54-.06-1,0-1.36,0-.12-.35-.28-.47-.44s.48-.39.36-.63c0-.06-.26-.16-.3-.21s.14-.25.14-.39c0-.36-.61-.8,0-1-.72-.53-.37-1.1-.43-1.6-.63-.2,0-.22-.12-.34-.2-.39-.87-.94-.31-1.22-.91-1.69-.17-3.19-1.23-4.88.51,0,.22-.27-.1-.43a.51.51,0,0,0,.41-.08c-.76-.31-.09-.45-.24-.71-.77-.18-.16-.23-.73-.41.43,0,.35.1.59.07-1.37-.36-.64-.78-1-1.07a.71.71,0,0,1-.24,0c.36,0-.33-.14-.3-.2-.1-.44-1.43-1-1.88-1.39.21,0,.82,0,.31-.17-.09.05-.06.14-.64.05.21-.08,0-.26-.48-.41,0-.14.29-.16-.12-.34,0,0-.61-.07-.58-.13.33-.14-.16-.31.15-.43-.54-.14-.67-.36-.36-.37-.23-.1-.47,0-.6-.08s-.36-.36,0-.44a3.44,3.44,0,0,1-.67-.22s.54.09.37,0a9.26,9.26,0,0,0-1-.12,3.34,3.34,0,0,0-.79-.22c.34-.06-.31-.24-.5-.36s0-.21-.13-.34-.54-.2-.52-.29.46-.07.44-.16-.45,0-.46-.11a1.37,1.37,0,0,0-.91-1c.88.47-.15.56.65,1-.54,0,.31.18-.42.11.3.07.53,0,.47.09s-.18,0-.14,0a5.82,5.82,0,0,0-1.09-.13c0,.26.26.5.24.72.15.06.37,0,.47.09s0,.14.16.27a9.15,9.15,0,0,1-1.33-.15c.09-.28-.78-.82-.83-1.18,0-.11.49-.14-.25-.32.2.19-.65.19-.74.31s.59.46.4.61-.27,0-.27.07.33.15.31.18-.29,0-.27,0,.43.2.4.28-.51.19-.38.37a3.76,3.76,0,0,1-.83-.15.65.65,0,0,0,0-.39,1.53,1.53,0,0,1-.37,0c.05,0,.2,0-.07-.13,0,.14-.92,0-1.34-.12.22-.31-.14-.78.24-1a3.74,3.74,0,0,1-.68-.21c-.25-.35.11-.65-.12-1-.77.27-.41.72-.19,1.2-.12,0-.44-.06-.37,0,.3.24.18.44.28.61l-1.61-.06c.36.53-1.79.54-1.86,1-.36-.05-.47,0-.73-.06s-.66-.16-.91-.24c0-.08-.19-.18.07-.21-1-.53-.16-.94-.71-1.49a8.19,8.19,0,0,0-1.55-.21c-.37.17.42.5-.35.62-1.41-.13-2.37-.37-2.42-.56a1.11,1.11,0,0,1,.35-1c-.69-1-.22-1.83-.73-2.83-.34.46.33,1-.26,1.4.26,0,.38.08.34.11a1.16,1.16,0,0,0,.13,1.37c-.88,0,.08.49-.82.52a5.76,5.76,0,0,1-2.25-.7c.05.19-.42.28-.52.41s.28.38,0,.4c-.07,0-.34-.07-.36,0s.06.09.08.11.25.09.2.16-.09.08-.42.1c-.26.31.1.7-.23,1,0,0,0,.1,0,.11s-.32,0-.37,0,.25,0,.21.08-.27.25-.26.39c0,.34-.37.68-.35,1-.1,0-.49-.09-.5,0a5.5,5.5,0,0,0-.87,1.36c-.05,0-.56-.08-.49,0-.1,0,.48.12.43.18a4.19,4.19,0,0,1-.62,0c-.53.5-.14,1.17,0,1.79a10.29,10.29,0,0,1,0,1.66c0,.43.46.9.07,1.21a2.34,2.34,0,0,1,.22,1.45c0,.34-.34.67-.11,1,0,.05.31.15.3.21s-.43.11-.44.19c-.05.23.4.54.35.76s-.19.49-.27.74.32.33.33.47-.33.15-.34.25c0,.27.46.63.31.87s-.77.59-.25,1a1.08,1.08,0,0,0-.31,1.2c-1,.15-.07.61-.33.92,0,0-.22,0-.28.05-.78.4.4,1.17-.28,1.49.59.25-.11.27-.27.4s.2.34.19.49-.25.06-.28.1.25.35.3.53-1,.37-.4.76c-.47.15-1,.4-.51.74-1,.29,0,.88-.46,1.26-.16.12-.81.16-.27.4-.66.05-.32.3-.43.47s-.5.32-.67.49.21.67-1.13.68c-2.71-.32,1.23.47.66.61a18.86,18.86,0,0,1-2.31-.2c-.42,0-.19.18,0,.31C153.92,157.94,152.69,157.84,152.65,158ZM186,134.37a.89.89,0,0,0,.25,0C186.84,134.51,186,134.46,186,134.37Zm-.22-.07c0-.14-.54-.41-.09-.44,0,0-.68-.08-.83-.15.31,0,.54,0,.56-.14,1,.14.37.25,1.23.39-.09.06-.14.09.31.2-.35.1.24.23-.11.29C186.32,134.34,186.44,134.41,185.81,134.3Z" transform="translate(-0.5 -0.5)"/><path class="cls-5" d="M176.29,165.8,182,128.93h-35.5V105c0-10.08,5-19.92,20.86-19.92h16.14V53.68a196.86,196.86,0,0,0-28.65-2.5c-29.24,0-48.35,17.67-48.35,49.64v28.11H74V165.8h32.5V255a129.81,129.81,0,0,0,40,0V165.8Z" transform="translate(-0.5 -0.5)"/></svg>