<svg id="Camada_1" data-name="Camada 1" xmlns="http://www.w3.org/2000/svg" viewBox="0 0 256 256"><defs><style>.cls-1{fill:#d31c37;}.cls-2{fill:#fff;}</style></defs><title>instagram_icone</title><circle class="cls-1" cx="128" cy="128" r="128"/><path class="cls-2" d="M168.23,80.08a8.8,8.8,0,1,0,8.8,8.8A8.8,8.8,0,0,0,168.23,80.08Z" transform="translate(-0.5 -0.5)"/><path class="cls-2" d="M129.12,91.36a37,37,0,1,0,37,37A37,37,0,0,0,129.12,91.36Zm0,60.64a23.68,23.68,0,1,1,23.67-23.68A23.7,23.7,0,0,1,129.12,152Z" transform="translate(-0.5 -0.5)"/><path class="cls-2" d="M158.46,203.36H98.54a45.13,45.13,0,0,1-45.08-45.08V98.36A45.13,45.13,0,0,1,98.54,53.28h59.92a45.13,45.13,0,0,1,45.08,45.08v59.92A45.13,45.13,0,0,1,158.46,203.36ZM98.54,67.4a31,31,0,0,0-31,31v59.92a31,31,0,0,0,31,31h59.92a31,31,0,0,0,31-31V98.36a31,31,0,0,0-31-31Z" transform="translate(-0.5 -0.5)"/></svg>