<svg id="Camada_1" data-name="Camada 1" xmlns="http://www.w3.org/2000/svg" viewBox="0 0 256 256"><defs><style>.cls-1{fill:#d31c37;}.cls-2{fill:#fff;}</style></defs><title>tiktok_icone</title><circle class="cls-1" cx="128" cy="128" r="128"/><path class="cls-2" d="M195,113.75c-1.31.13-2.63.19-3.94.2a42.77,42.77,0,0,1-35.79-19.34v65.86a48.68,48.68,0,1,1-48.68-48.68h0c1,0,2,.09,3,.16v24a27.15,27.15,0,0,0-3-.3,24.85,24.85,0,0,0,0,49.69c13.73,0,25.85-10.81,25.85-24.53l.24-111.86h22.94A42.75,42.75,0,0,0,195,87.09v26.66" transform="translate(-0.5 -0.5)"/></svg>