<svg id="Camada_1" data-name="Camada 1" xmlns="http://www.w3.org/2000/svg" viewBox="0 0 256 256"><defs><style>.cls-1{fill:#d31c37;}.cls-2{fill:#fff;}</style></defs><title>twitter_icone</title><circle class="cls-1" cx="128" cy="128" r="128"/><path class="cls-2" d="M199.22,84.64a57.61,57.61,0,0,1-14.12,4c2.27-.38,5.61-4.49,7-6.16A25.74,25.74,0,0,0,196.73,74c.12-.24.21-.55,0-.74a.82.82,0,0,0-.75.07,72.08,72.08,0,0,1-16.74,6.4,1.13,1.13,0,0,1-1.15-.3,14.91,14.91,0,0,0-1.46-1.5,29.85,29.85,0,0,0-8.11-5,28.15,28.15,0,0,0-12.44-2,29.74,29.74,0,0,0-11.8,3.33A30.57,30.57,0,0,0,134.73,82a29.3,29.3,0,0,0-5.68,11.39,30.79,30.79,0,0,0-.3,12c.09.67,0,.76-.58.67-23-3.42-42-11.65-57.52-29.27-.67-.77-1-.77-1.58,0C62.3,87,65.58,103.34,74,111.35c1.13,1.07,2.28,2.14,3.53,3.12a29.43,29.43,0,0,1-11.1-3.12c-.67-.42-1-.18-1.06.59a16.92,16.92,0,0,0,.18,3.29c1.3,10.29,8.42,19.8,18.18,23.51a16.85,16.85,0,0,0,3.68,1.13c-2.22.49-4.51.84-10.88.34-.79-.16-1.1.24-.79,1,4.78,13.06,15.12,16.94,22.87,19.16,1,.18,2.07.18,3.11.42-.06.09-.12.09-.18.18C99,164.89,90.1,167.8,86,169.25a56,56,0,0,1-23.73,3c-1.27-.19-1.54-.17-1.89,0s0,.52.37.85c1.62,1.07,3.26,2,4.94,2.93a78.16,78.16,0,0,0,15.86,6.34c28.5,7.87,60.6,2.09,82-19.17,16.81-16.69,22.7-39.72,22.7-62.77,0-.9,1.06-1.4,1.7-1.88A55.58,55.58,0,0,0,199.06,87a3.54,3.54,0,0,0,.73-2.23v-.12C199.79,84.27,199.79,84.38,199.22,84.64Z" transform="translate(-0.5 -0.5)"/></svg>