<svg xmlns="http://www.w3.org/2000/svg" viewBox="0 0 512 512"><defs><style>.cls-1{fill:#fff;}.cls-2{fill:#f4364c;}</style></defs><g id="Layer_3" data-name="Layer 3"><circle class="cls-1" cx="254.45" cy="268.68" r="211.37"/></g><g id="Layer_1" data-name="Layer 1"><path class="cls-2" d="M312.14,234.69c-16.88,0-30.31,15.25-30.31,34s13.69,34,30.31,34c17,0,30.31-15.26,30.31-34C342.72,250.08,329.16,234.69,312.14,234.69Z"/><path class="cls-2" d="M254.44,0C113.92,0,0,113.92,0,254.45S113.92,508.89,254.44,508.89,508.89,395,508.89,254.45,395,0,254.44,0ZM423.19,341a1,1,0,0,1-.43.77,278.85,278.85,0,0,1-84.36,42.58,1.07,1.07,0,0,1-1.18-.4,223,223,0,0,1-17.22-28,1.07,1.07,0,0,1,.57-1.49,173.61,173.61,0,0,0,26.33-12.53,1.09,1.09,0,0,0,.09-1.8c-1.78-1.32-3.55-2.71-5.24-4.1a1,1,0,0,0-1.1-.14c-54.55,25.2-114.31,25.2-169.51,0a1.05,1.05,0,0,0-1.09.15c-1.69,1.39-3.46,2.77-5.23,4.09a1.09,1.09,0,0,0,.11,1.8,183.53,183.53,0,0,0,26.31,12.54,1.06,1.06,0,0,1,.58,1.48,199.55,199.55,0,0,1-17.23,28,1.1,1.1,0,0,1-1.18.39,279.71,279.71,0,0,1-84.22-42.58,1.11,1.11,0,0,1-.44-.78c-5.88-62.94,6.1-126.66,49.83-192a.94.94,0,0,1,.45-.38,277.27,277.27,0,0,1,68.65-21.3,1.1,1.1,0,0,1,1.11.52,178.78,178.78,0,0,1,8.68,17.56,256.86,256.86,0,0,1,77.11,0,194.26,194.26,0,0,1,8.55-17.56,1,1,0,0,1,1.1-.52,277.79,277.79,0,0,1,68.66,21.3.9.9,0,0,1,.44.4C411.42,205.05,430.23,268.25,423.19,341Z"/><path class="cls-2" d="M200.07,234.69c-16.89,0-30.32,15.25-30.32,34s13.7,34,30.32,34c16.88,0,30.31-15.26,30.31-34C230.64,250.08,217.08,234.69,200.07,234.69Z"/></g></svg>