<svg xmlns="http://www.w3.org/2000/svg" viewBox="0 0 512 512"><defs><style>.cls-1{fill:#fff;}.cls-2{fill:#f4364c;}</style></defs><g id="Layer_3" data-name="Layer 3"><path class="cls-1" d="M296,330h59.65L367,256H296V208c0-20.25,9.92-40,41.72-40H370V105s-29.3-5-57.31-5C254.22,100,216,135.44,216,199.6V256H151v74h65V508.88a258,258,0,0,0,80,0Z"/></g><g id="Layer_1" data-name="Layer 1"><path class="cls-2" d="M512,256c0,127.78-93.62,233.68-216,252.89V330h59.65L367,256H296V208c0-20.25,9.92-40,41.72-40H370V105s-29.3-5-57.31-5C254.22,100,216,135.44,216,199.6V256H151v74h65V508.89C93.62,489.68,0,383.78,0,256,0,114.61,114.61,0,256,0S512,114.61,512,256Z"/></g></svg>