<svg xmlns="http://www.w3.org/2000/svg" viewBox="0 0 512 512"><defs><style>.cls-1{fill:#fff;}.cls-2{fill:#f4364c;}</style></defs><g id="Layer_2" data-name="Layer 2"><circle class="cls-1" cx="256" cy="256" r="256"/></g><g id="Layer_3" data-name="Layer 3"><circle class="cls-1" cx="266.29" cy="256" r="211.37"/></g><g id="Layer_1" data-name="Layer 1"><path class="cls-2" d="M304.58,255.64a47.35,47.35,0,1,1-47.35-47.35A47.4,47.4,0,0,1,304.58,255.64Z"/><path class="cls-2" d="M315.92,133.8H196.08a62,62,0,0,0-61.93,61.92V315.56a62,62,0,0,0,61.93,61.92H315.92a62,62,0,0,0,61.92-61.92V195.72A62,62,0,0,0,315.92,133.8ZM257.23,329.55a73.92,73.92,0,1,1,73.92-73.91A74,74,0,0,1,257.23,329.55Zm78.23-135.21a17.6,17.6,0,1,1,17.6-17.59A17.6,17.6,0,0,1,335.46,194.34Z"/><path class="cls-2" d="M256,0C114.61,0,0,114.61,0,256S114.61,512,256,512,512,397.39,512,256,397.39,0,256,0ZM406.07,315.56a90.25,90.25,0,0,1-90.15,90.15H196.08a90.25,90.25,0,0,1-90.16-90.15V195.72a90.25,90.25,0,0,1,90.16-90.16H315.92a90.25,90.25,0,0,1,90.15,90.16Z"/></g></svg>