<svg xmlns="http://www.w3.org/2000/svg" viewBox="0 0 512 512"><defs><style>.cls-1{fill:#fff;}.cls-2{fill:#f4364c;}</style></defs><g id="Layer_2" data-name="Layer 2"><circle class="cls-1" cx="256" cy="256" r="256"/></g><g id="Layer_3" data-name="Layer 3"><circle class="cls-1" cx="256" cy="256" r="211.37"/></g><g id="Layer_1" data-name="Layer 1"><path class="cls-2" d="M256,0C114.62,0,0,114.62,0,256S114.62,512,256,512,512,397.38,512,256,397.38,0,256,0ZM390.48,228.45a126.22,126.22,0,0,1-73.63-23.56V312.66a97.67,97.67,0,1,1-97.66-97.61,100.32,100.32,0,0,1,13.4.9v54l-1.65-.5-1.68-.41c-1.07-.25-2.17-.47-3.29-.64s-2.28-.31-3.44-.41c-.41,0-.84-.06-1.28-.07-.74,0-1.48-.06-2.23-.06a44.66,44.66,0,0,0-34.28,73.29,40.47,40.47,0,0,0,3.1,3.32,44.79,44.79,0,0,0,11.09,7.93h0a44.69,44.69,0,0,0,64.76-39.74V101.72h53.15v6.8c.18,2,.46,4.06.8,6.07a73.91,73.91,0,0,0,72.83,61Z"/></g></svg>