<svg xmlns="http://www.w3.org/2000/svg" viewBox="0 0 512 512"><defs><style>.cls-1{fill:#fff;}.cls-2{fill:#f4364c;}</style></defs><g id="Layer_2" data-name="Layer 2"><circle class="cls-1" cx="256" cy="256" r="256"/></g><g id="Layer_3" data-name="Layer 3"><circle class="cls-1" cx="258.99" cy="264.23" r="211.37"/></g><g id="Layer_1" data-name="Layer 1"><path class="cls-2" d="M256,0C114.61,0,0,114.62,0,256S114.61,512,256,512,512,397.39,512,256,397.39,0,256,0ZM398.59,168.53a7,7,0,0,1-1.48,4.44c-6.52,8.78-13.57,16.64-22.32,23.21-1.26,1-3.39,1.95-3.39,3.76,0,46.1-11.78,92.15-45.39,125.54-42.8,42.52-107,54.09-164,38.35a156.36,156.36,0,0,1-31.72-12.69c-3.35-1.83-6.64-3.72-9.88-5.86-.82-.66-1.43-1.27-.73-1.7s1.23-.38,3.78,0a111.89,111.89,0,0,0,47.44-6.07c8.3-2.9,26.11-8.73,31.24-16.56.12-.18.25-.18.37-.37-2.08-.49-4.15-.49-6.23-.85-15.48-4.43-36.16-12.19-45.74-38.3-.61-1.53,0-2.32,1.59-2,12.75,1,17.32.3,21.77-.67a33.87,33.87,0,0,1-7.38-2.26c-19.51-7.42-33.75-26.45-36.35-47a35.59,35.59,0,0,1-.37-6.59c.12-1.52.8-2,2.14-1.16,10,5.19,21.29,6.41,22.2,6.22-2.5-2-4.82-4.08-7.07-6.22-16.92-16-23.48-48.63-10-68.92,1.11-1.65,1.83-1.65,3.18-.12,30.94,35.26,69.05,51.71,115,58.55,1.22.19,1.34,0,1.16-1.34-1.2-8.1-1.36-16,.6-24a58.38,58.38,0,0,1,11.37-22.77,60.78,60.78,0,0,1,19-15.55,59.48,59.48,0,0,1,23.6-6.66,56.38,56.38,0,0,1,24.87,4,59.16,59.16,0,0,1,16.22,9.94,26.76,26.76,0,0,1,2.92,3,2.25,2.25,0,0,0,2.32.61,143.39,143.39,0,0,0,33.47-12.81,1.61,1.61,0,0,1,1.5-.12c.49.37.31,1,.06,1.47A51.82,51.82,0,0,1,383.09,164c-2.67,3.32-9.34,11.54-13.88,12.31,9.56-1.61,19.37-4.05,28.23-8.06,1.14-.51,1.15-.73,1.15,0Z"/></g></svg>